<svg xmlns="http://www.w3.org/2000/svg" viewBox="0 0 32 32" fill="none">
  <rect x="1" y="1" width="30" height="30" rx="8" fill="#1c2430" stroke="rgba(255,255,255,0.08)" stroke-width="1"/>
  <rect x="6" y="9" width="20" height="2" rx="1" fill="#fff" fill-opacity="0.92"/>
  <rect x="6" y="14.5" width="20" height="2" rx="1" fill="#fff" fill-opacity="0.72"/>
  <rect x="6" y="20" width="14" height="2" rx="1" fill="#fff" fill-opacity="0.52"/>
  <path fill="#d16c46" d="M21.5 18h5.5a1.2 1.2 0 0 1 1.2 1.2v6.8a1.2 1.2 0 0 1-1.2 1.2H21.5a1.2 1.2 0 0 1-1.2-1.2v-6.8a1.2 1.2 0 0 1 1.2-1.2Z"/>
  <path stroke="#d16c46" stroke-width="1.2" stroke-linecap="round" d="M22.1 18V16.8a1.8 1.8 0 0 1 3.6 0V18"/>
  <path fill="#12181f" d="M23.4 20.2h1.1c.5 0 .9.4.9.9s-.4.9-.9.9h-1.1v.9h1.1c1 0 1.8-.8 1.8-1.8s-.8-1.8-1.8-1.8h-1.1v-.9zm0 2.7h1.2c.6 0 1.1-.5 1.1-1.1v-.1c0-.6-.5-1.1-1.1-1.1h-1.2v2.3z"/>
</svg>
